 http://img39.imageshack.us/img39/9278/3d3275ce.jpg

Country.......: USA
Genre.........: Thriller, Sci-Fi, Adventure
Date release..: 09.04.2011 [World]
Director......: Billy O Brien
Writers.......: Douglas G. Davis
Duration......: 88 min.
More..........: http://www.imdb.com/title/tt1637728
Trailer.......: http://www.imdb.com/video/screenplay/vi612670489
Trailer.......:

Pilot :
A groundbreaking device is designed to glimpse alternate universes. But when the machine malfunctions and transports a group of observers into a nightmarish dimension of alien terrors, the travelers must use ingenuity to survive.

Cats :
Joe Flanigan   	 ...  	Colonel Sam Synn
John Rhys Davies 	... 	Senator Jackson Crenshaw
Catherine Walker 	... 	Dr. Karen Fast
Dagmar Doring 	... 	Dr. Jillian O Hara
Robert Soohan 	... 	Brian Murphy
Yare Michael Jegbefume 	... 	Lieutenant Rivers
Chris Newman 	... 	Pvt. Jordan Reid
Shashi Rami 	... 	Al Icia 

Data Technical :
!!! SAMPLE !!!
Audio.....: English
Subtitles.: None
Format                           : AVI
Format/Info                      : Audio Video Interleave
File size                        : 700 MiB
Duration                         : 1h 28mn
Overall bit rate                 : 1 110 Kbps
Writing application              : VirtualDubMod 1.5.4.1 (build 2178/release)
Writing library                  : VirtualDubMod build 2178/release
Video
ID                               : 0
Format                           : MPEG-4 Visual
Format profile                   : Advanced Simple@L5
Format settings, BVOP            : Yes
Format settings, QPel            : No
Format settings, GMC             : No warppoints
Format settings, Matrix          : Custom
Codec ID                         : XVID
Codec ID/Hint                    : XviD
Duration                         : 1h 28mn
Bit rate                         : 988 Kbps
Width                            : 640 pixels
Height                           : 368 pixels
Display aspect ratio             : 16:9
Frame rate                       : 23.976 fps
Color space                      : YUV
Chroma subsampling               : 4:2:0
Bit depth                        : 8 bits
Scan type                        : Progressive
Bits/(Pixel*Frame)               : 0.175
Stream size                      : 622 MiB (89%)
Writing library                  : XviD 58
Audio
ID                               : 1
Format                           : MPEG Audio
Format version                   : Version 1
Format profile                   : Layer 3
Mode                             : Joint stereo
Mode extension                   : MS Stereo
Codec ID                         : 55
Codec ID/Hint                    : MP3
Duration                         : 1h 28mn
Bit rate mode                    : Variable
Bit rate                         : 110 Kbps
Nominal bit rate                 : 128 Kbps
Channel(s)                       : 2 channels
Sampling rate                    : 48.0 KHz
Stream size                      : 69.5 MiB (10%)
Alignment                        : Aligned on interleaves
Interleave, duration             : 24 ms (0.58 video frame)
Interleave, preload duration     : 341 ms
Writing library                  : LAME3.98r
Encoding settings                : -m j -V 4 -q 2 -lowpass 17 --abr 128

Screen : 
http://img600.imageshack.us/img600/2185/ferociousplanet2011s1.jpg 
http://img217.imageshack.us/img217/555/ferociousplanet2011s2.jpg 
http://img585.imageshack.us/img585/2262/ferociousplanet2011s3.jpg 
http://img23.imageshack.us/img23/2347/ferociousplanet2011s4.jpg 
http://img24.imageshack.us/img24/7007/ferociousplanet2011s5.jpg